<svg version="1.2" xmlns="http://www.w3.org/2000/svg" viewBox="0 0 696 367" width="696" height="367">
	<defs>
		<clipPath clipPathUnits="userSpaceOnUse" id="cp1">
			<path d="m2 184.8c0 100.4 154.73 181.8 345.6 181.8 190.87 0 345.6-81.4 345.6-181.8 0-100.4-154.73-181.8-345.6-181.8-190.87 0-345.6 81.4-345.6 181.8z"/>
		</clipPath>
		<radialGradient id="g1" cx="0" cy="0" r="1" gradientUnits="userSpaceOnUse" gradientTransform="matrix(453.822,0,0,453.822,209.5,66.915)">
			<stop offset="0" stop-color="#aeb2d5"/>
			<stop offset=".3" stop-color="#aeb2d5"/>
			<stop offset=".75" stop-color="#484c89"/>
			<stop offset="1" stop-color="#484c89"/>
		</radialGradient>
		<clipPath clipPathUnits="userSpaceOnUse" id="cp2">
			<path d="m-12.4-17.7h720v405h-720z"/>
		</clipPath>
		<clipPath clipPathUnits="userSpaceOnUse" id="cp3">
			<path d="m-12.4-17.7h720v405h-720z"/>
		</clipPath>
	</defs>
	<style>
		.s0 { fill: url(#g1) } 
		.s1 { fill: #777bb3 } 
		.s2 { fill: #000000 } 
		.s3 { fill: #ffffff } 
	</style>
	<g id="g3438">
		<g id="g3440">
			<g id="Clip-Path: g3442" clip-path="url(#cp1)">
				<g id="g3442">
					<g id="g3448">
						<g id="g3450">
							<path id="path3462" class="s0" d="m2 184.8c0 100.4 154.73 181.8 345.6 181.8 190.87 0 345.6-81.4 345.6-181.8 0-100.4-154.73-181.8-345.6-181.8-190.87 0-345.6 81.4-345.6 181.8z"/>
						</g>
					</g>
				</g>
			</g>
		</g>
		<g id="g3464">
			<g id="Clip-Path: g3466" clip-path="url(#cp2)">
				<g id="g3466">
					<g id="g3472">
						<path id="path3474" class="s1" d="m347.6 353.1c183.41 0 332.1-75.35 332.1-168.3 0-92.95-148.69-168.3-332.1-168.3-183.41 0-332.1 75.35-332.1 168.3 0 92.95 148.69 168.3 332.1 168.3z"/>
					</g>
				</g>
			</g>
		</g>
		<g id="g3476">
			<g id="Clip-Path: g3478" clip-path="url(#cp3)">
				<g id="g3478">
					<g id="g3484">
						<path id="path3486" class="s2" d="m110.94 290.35c-1.12 0-2.18-0.5-2.89-1.36-0.72-0.87-1-2-0.79-3.1l35.41-182.19c0.34-1.76 1.89-3.03 3.68-3.03h76.32c23.98 0 41.84 6.51 53.06 19.35 11.28 12.92 14.76 30.97 10.35 53.66-1.79 9.24-4.88 17.82-9.18 25.51-4.29 7.69-9.98 14.81-16.88 21.16-8.27 7.74-17.63 13.35-27.8 16.65-10 3.26-22.85 4.92-38.18 4.92h-30.91l-8.82 45.4c-0.34 1.76-1.89 3.03-3.68 3.03zm78.83-84.68c15.08 0 26.34-2.79 33.46-8.27 7.05-5.42 11.92-14.83 14.47-27.94 2.38-12.26 1.47-20.82-2.7-25.43-4.25-4.72-13.46-7.11-27.36-7.11h-24.1l-13.36 68.75z"/>
					</g>
					<g id="g3488">
						<path id="path3490" class="s3" d="m222.67 96.91h-76.32c-3.59 0-6.68 2.55-7.36 6.07l-35.41 182.19c-0.43 2.2 0.15 4.47 1.57 6.2 1.43 1.73 3.55 2.73 5.79 2.73h39.69c3.59 0 6.67-2.54 7.36-6.07l8.23-42.37h27.82c15.72 0 28.96-1.71 39.34-5.09 10.68-3.47 20.5-9.35 29.2-17.48 7.19-6.62 13.11-14.04 17.6-22.07 4.49-8.04 7.71-17 9.58-26.63 4.65-23.88 0.87-43-11.21-56.83-11.96-13.7-30.77-20.65-55.88-20.65zm0 7.5q34.44 0 50.23 18.08 15.8 18.08 9.5 50.47-2.59 13.34-8.77 24.4-6.18 11.06-16.15 20.23-11.89 11.12-26.42 15.85-14.53 4.73-37.02 4.72h-34l-9.41 48.44h-39.69l35.41-182.19zm-57.04 105h24.14q24 0.01 35.75-9.04 11.75-9.04 15.86-30.19 3.94-20.31-3.59-28.67-7.53-8.34-30.15-8.35h-27.19zm21-68.75h21.01c16.78 0 22.6 3.69 24.58 5.88 3.29 3.64 3.91 11.32 1.8 22.21-2.37 12.19-6.77 20.83-13.07 25.68-6.46 4.97-16.95 7.48-31.18 7.48h-15.04z"/>
					</g>
					<g id="g3492">
						<path id="path3494" class="s2" d="m377.08 241.92c-1.12 0-2.18-0.5-2.89-1.37-0.72-0.86-1.01-2-0.79-3.1l15.66-80.61c1.49-7.67 1.12-13.17-1.03-15.49-1.32-1.43-5.29-3.81-17.01-3.81h-28.38l-19.69 101.34c-0.34 1.76-1.89 3.04-3.68 3.04h-39.38c-1.12 0-2.18-0.5-2.89-1.37-0.71-0.86-1-2-0.79-3.1l35.41-182.19c0.34-1.76 1.89-3.03 3.68-3.03h39.38c1.12 0 2.18 0.5 2.89 1.36 0.71 0.87 1 2 0.79 3.1l-8.55 43.98h30.53c23.26 0 39.03 4.1 48.21 12.53 9.36 8.61 12.29 22.36 8.69 40.9l-16.48 84.78c-0.34 1.76-1.88 3.04-3.68 3.04z"/>
					</g>
					<g id="g3496">
						<path id="path3498" class="s3" d="m354.68 48.48h-39.38c-3.59 0-6.68 2.54-7.36 6.07l-35.41 182.18c-0.43 2.2 0.15 4.48 1.57 6.21 1.43 1.72 3.55 2.72 5.79 2.72h39.38c3.59 0 6.67-2.54 7.36-6.06l19.1-98.31h25.29c11.7 0 14.16 2.5 14.26 2.61 0.71 0.76 1.64 4.3 0.1 12.22l-15.66 80.61c-0.43 2.2 0.15 4.48 1.57 6.21 1.43 1.72 3.55 2.72 5.79 2.72h40c3.59 0 6.68-2.54 7.36-6.06l16.48-84.79c3.86-19.9 0.55-34.83-9.83-44.37-9.91-9.1-26.51-13.53-50.75-13.53h-25.98l7.68-39.5c0.43-2.2-0.15-4.48-1.58-6.2-1.42-1.73-3.54-2.73-5.78-2.73zm0 7.5l-9.42 48.43h35.08q33.11 0.01 45.67 11.55 12.57 11.55 7.54 37.42l-16.47 84.78h-40l15.66-80.61q2.68-13.75-1.96-18.76-4.65-5-19.76-5h-31.47l-20.28 104.37h-39.38l35.41-182.18z"/>
					</g>
					<g id="g3500">
						<path id="path3502" class="s2" d="m420.71 290.35c-1.12 0-2.18-0.5-2.89-1.36-0.72-0.87-1.01-2-0.79-3.1l35.41-182.19c0.34-1.76 1.88-3.03 3.68-3.03h76.32c23.98 0 41.83 6.51 53.06 19.35 11.28 12.92 14.76 30.97 10.35 53.66-1.8 9.24-4.88 17.82-9.18 25.51-4.3 7.69-9.98 14.81-16.89 21.16-8.27 7.74-17.63 13.35-27.79 16.65-10 3.26-22.85 4.92-38.19 4.92h-30.9l-8.82 45.4c-0.34 1.76-1.89 3.03-3.68 3.03zm78.82-84.68c15.09 0 26.34-2.79 33.47-8.27 7.05-5.42 11.91-14.82 14.47-27.94 2.37-12.26 1.47-20.82-2.7-25.43-4.26-4.72-13.46-7.11-27.36-7.11h-24.11l-13.36 68.75z"/>
					</g>
					<g id="g3504">
						<path id="path3506" class="s3" d="m532.44 96.91h-76.32c-3.59 0-6.68 2.55-7.36 6.07l-35.41 182.19c-0.43 2.2 0.15 4.47 1.57 6.2 1.43 1.73 3.55 2.73 5.79 2.73h39.69c3.59 0 6.68-2.54 7.36-6.07l8.23-42.37h27.82c15.72 0 28.96-1.71 39.34-5.09 10.68-3.47 20.51-9.35 29.2-17.48 7.19-6.62 13.11-14.04 17.6-22.07 4.49-8.04 7.71-17 9.58-26.63 4.65-23.88 0.87-43-11.21-56.83-11.96-13.7-30.77-20.65-55.88-20.65zm0 7.5q34.44 0 50.23 18.08 15.8 18.08 9.5 50.47-2.59 13.34-8.77 24.4-6.18 11.06-16.15 20.23-11.89 11.12-26.42 15.85-14.53 4.73-37.02 4.72h-34l-9.41 48.44h-39.69l35.41-182.19zm-57.04 105h24.14q24 0.01 35.75-9.04 11.75-9.04 15.86-30.19 3.94-20.31-3.59-28.67-7.53-8.34-30.15-8.35h-27.19zm21-68.75h21.01c16.78 0 22.6 3.69 24.58 5.88 3.29 3.64 3.91 11.32 1.8 22.21-2.37 12.19-6.77 20.83-13.07 25.68-6.46 4.97-16.95 7.48-31.18 7.48h-15.04z"/>
					</g>
				</g>
			</g>
		</g>
	</g>
</svg>